:SAMPLES-PER-SECOND 30
:FRAME-RANGE 1-2009
:FULLY-SPECIFIED
:DEGREES
1947
root  11.9031 39.2804 -81.8678 179.601 -56.4729 -176.198
RightUpLeg  -7.19564 0.898858 2.58861
RightLeg  22.3738 5.68315 2.25601
RightFoot  -15.2484 -0.175828 -2.13233
RightToes  2.96424e-010 1.2921e-014 -6.02303e-014
Spine  -1.34881 -1.40879 6.49535
Spine1  5.56765 -1.2147 -1.08179
HEad  26.8658 22.749 1.02641
LeftShoulder1  0.221774 2.4513 -19.7412
LeftArm  -0.186119 21.1758 -54.1755
LeftForeArm  33.9711 0.45314 -13.8575
LeftHand  0.00790247 6.10485 5.60836
RightShoulder  1.13687 -0.00436768 28.3975
RightArm  -25.7757 4.09028 47.3866
RightForeArm  61.8938 -5.54742 3.17409
RightHand  0.281916 -7.03657 -20.5963
LeftUpLeg  -28.673 1.57745 -1.24516
LeftLeg  49.7857 4.48515 6.10439
LeftFoot  -4.15729 0.0659481 -0.651913
LeftToes  -1.2485e-010 1.20979e-011 -1.0929e-011
1948
root  10.5113 39.2951 -82.5883 -179.099 -55.2727 -177.296
RightUpLeg  -4.42488 0.503894 1.32943
RightLeg  21.1557 7.89993 2.98988
RightFoot  -16.6091 -0.20351 -1.98259
RightToes  2.96424e-010 1.2921e-014 -6.02303e-014
Spine  -1.7425 -0.974528 6.35009
Spine1  5.82887 -0.77176 -1.82488
HEad  25.6822 22.7957 -0.400899
LeftShoulder1  0.0558914 3.09538 -20.6078
LeftArm  -0.154258 25.0531 -52.0582
LeftForeArm  35.1237 1.28641 -14.0223
LeftHand  0.0192407 6.37002 5.5792
RightShoulder  1.33939 0.790406 26.6397
RightArm  -22.2367 10.475 49.21
RightForeArm  59.3231 -5.89078 4.71288
RightHand  0.157433 -6.29986 -21.2551
LeftUpLeg  -29.5285 0.322146 -1.42707
LeftLeg  37.7636 7.59464 6.63236
LeftFoot  -2.45079 0.0475345 -0.421471
LeftToes  -1.2485e-010 1.20979e-011 -1.0929e-011
1949
root  9.02782 39.2944 -83.3517 -178.074 -55.0973 -178.452
RightUpLeg  -0.949542 -0.753666 -0.0134867
RightLeg  19.6419 9.50258 3.2694
RightFoot  -17.4864 -0.245774 -2.37592
RightToes  2.96424e-010 1.2921e-014 -6.02303e-014
Spine  -3.66658 -0.903203 4.32941
Spine1  8.30625 -1.18831 -0.207998
HEad  24.6433 22.8678 -2.25948
LeftShoulder1  -0.0749808 3.57185 -21.7909
LeftArm  -2.26804 27.6577 -50.6402
LeftForeArm  36.9994 3.75103 -13.7191
LeftHand  0.0258467 6.58389 5.34581
RightShoulder  1.50952 1.61982 24.5235
RightArm  -19.0981 17.2623 50.686
RightForeArm  56.7423 -6.15703 5.82006
RightHand  0.0984691 -5.96141 -21.74
LeftUpLeg  -28.2477 -2.60196 -1.16665
LeftLeg  23.3223 13.4696 6.6016
LeftFoot  -0.470222 0.0677321 -0.682172
LeftToes  -1.2485e-010 1.20979e-011 -1.0929e-011
1950
root  7.50077 39.2326 -84.1388 -178.484 -54.6615 -178.104
RightUpLeg  2.85625 -0.868017 -0.34685
RightLeg  17.8516 10.4823 3.11949
RightFoot  -18.0216 -0.229115 -1.83752
RightToes  2.96424e-010 1.2921e-014 -6.02303e-014
Spine  -4.288 -0.718918 5.88884
Spine1  8.71543 -0.507567 -2.63507
HEad  25.4918 22.1445 -1.94516
LeftShoulder1  0.0148655 3.24792 -20.4365
LeftArm  -5.79233 31.1906 -50.5979
LeftForeArm  39.3276 6.55973 -12.7599
LeftHand  0.0506177 7.25673 5.16485
RightShoulder  1.5359 1.75091 24.2406
RightArm  -16.7357 22.7092 51.1546
RightForeArm  56.1162 -4.80488 6.80468
RightHand  0.0831412 -5.89247 -21.2998
LeftUpLeg  -25.9518 -2.86855 -0.968955
LeftLeg  8.53413 15.9274 4.05825
LeftFoot  -0.469556 0.0461978 -0.455806
LeftToes  -1.2485e-010 1.20979e-011 -1.0929e-011
1951
root  5.92836 39.1158 -84.9012 -178.959 -54.1736 -177.846
RightUpLeg  6.5535 -0.985122 -0.987605
RightLeg  16.6368 11.7375 3.25368
RightFoot  -18.3394 -0.201938 -1.27404
RightToes  2.96424e-010 1.2921e-014 -6.02303e-014
Spine  -5.09844 -0.547062 6.04866
Spine1  9.55703 -0.269601 -2.98776
HEad  27.0472 22.1321 -1.66658
LeftShoulder1  -0.0569202 3.51856 -20.2228
LeftArm  -8.19698 33.6058 -50.1131
LeftForeArm  40.6693 7.59132 -12.099
LeftHand  0.0605545 7.86027 4.54251
RightShoulder  1.6284 2.35223 22.5716
RightArm  -15.249 27.1071 52.1313
RightForeArm  55.2046 -2.2289 7.41841
RightHand  0.0847192 -5.90582 -21.1471
LeftUpLeg  -23.7152 -2.49782 -1.06494
LeftLeg  -2.91342 14.851 1.85925
LeftFoot  -3.18374 0.267298 -3.48022
LeftToes  -1.2485e-010 1.20979e-011 -1.0929e-011
1952
root  4.30029 38.8194 -85.6427 179.899 -53.7838 -177.038
RightUpLeg  9.31985 0.164354 -1.20453
RightLeg  17.9426 12.0369 3.94808
RightFoot  -19.2277 -0.161466 -0.455298
RightToes  2.96424e-010 1.2921e-014 -6.02303e-014
Spine  -4.88107 -0.390837 6.93969
Spine1  9.1783 0.0196477 -3.75758
HEad  28.1951 22.3245 -0.40077
LeftShoulder1  -0.117093 3.75764 -19.478
LeftArm  -10.4065 35.6818 -49.7425
LeftForeArm  41.0449 7.48792 -11.4836
LeftHand  0.0595104 8.03449 4.25276
RightShoulder  1.61127 2.49242 21.5167
RightArm  -14.0509 30.4363 53.0779
RightForeArm  54.8221 0.0695679 7.90636
RightHand  0.0687874 -5.82329 -20.9685
LeftUpLeg  -24.0201 -3.6244 -1.18717
LeftLeg  -2.60955 13.7613 3.10965
LeftFoot  -6.95311 0.128746 -2.27056
LeftToes  -1.2485e-010 1.20979e-011 -1.0929e-011
1953
root  2.6934 38.4486 -86.401 178.933 -54.3309 -176.463
RightUpLeg  11.2538 1.66974 -0.95987
RightLeg  21.133 11.2997 4.57663
RightFoot  -19.7561 -0.0408283 1.26295
RightToes  2.96424e-010 1.2921e-014 -6.02303e-014
Spine  -4.66698 -0.25767 6.71487
Spine1  9.27622 -0.00264706 -3.35326
HEad  27.6712 22.3726 0.436855
LeftShoulder1  -0.189484 4.03377 -19.6463
LeftArm  -10.524 35.8414 -48.3641
LeftForeArm  40.0053 7.49556 -11.3916
LeftHand  0.0414746 7.86577 3.69794
RightShoulder  1.60043 2.65001 20.5366
RightArm  -13.9908 32.0255 52.6755
RightForeArm  54.4906 4.10128 8.27787
RightHand  0.114659 -6.09925 -20.4402
LeftUpLeg  -26.137 -2.93427 -1.54771
LeftLeg  5.5477 10.3899 3.16288
LeftFoot  -4.11528 0.107361 -1.30827
LeftToes  -1.2485e-010 1.20979e-011 -1.0929e-011
